<?xml version="1.0" encoding="UTF-8"?><svg id="Calque_1" xmlns="http://www.w3.org/2000/svg" viewBox="0 0 312.69 267.32"><defs><style>.cls-1{fill:#fff;}.cls-2{fill:#1f1f19;}.cls-3{fill:#dadada;}.cls-4{fill:#323230;}.cls-5{fill:#ed6b1f;}.cls-6{fill:#d2601a;}</style></defs><polygon class="cls-4" points="312.69 55.28 312.69 228.38 156.62 267.32 156.54 230.95 277.38 200.8 277.38 80.23 156.6 37.46 156.56 0 312.69 55.28"/><polygon class="cls-2" points="156.62 267.32 0 228.94 0 55.78 156.56 0 156.6 37.46 35.3 80.68 35.3 201.24 156.54 230.95 156.62 267.32"/><polygon class="cls-6" points="156.57 28.34 156.57 238.98 29.55 207.86 29.55 73.59 156.57 28.34"/><polygon class="cls-5" points="283.14 73.15 283.14 207.4 156.57 238.98 156.57 28.34 283.14 73.15"/><polygon class="cls-3" points="134.02 57.15 134.02 210.17 105.41 206 105.41 152.13 75.14 152.81 75.14 201.6 56.64 198.89 54.39 198.56 54.39 80.51 75.31 74.38 75.31 121.04 105.41 117.04 105.41 65.55 134.02 57.15"/><path class="cls-1" d="M248.89,100.03c-3.29-8.23-7.88-15.04-13.25-19.82-2.23-1.97-4.99-4.22-8.18-6.37-2.91-1.97-5.96-3.38-9.09-4.3l-39.37-11.49V209.27l51.02-7.57c4.83-2.64,9.27-6.73,13.01-12.1,5.43-7.8,10.46-19.53,12.24-37.43,2.38-23.71-1.97-41.05-6.39-52.14Zm-8.92,45.42c-1.01,9.55-3.82,15.61-6.8,19.49-3.29,4.3-7.47,6.62-11.86,6.8l-19.59,.77V99.9l18.57,3.41c1.57,.28,3.13,.83,4.63,1.68,1.67,.94,3.12,1.95,4.28,2.86,2.88,2.23,5.38,5.62,7.19,9.85,2.47,5.77,4.92,14.99,3.59,27.74Z"/></svg>