<?xml version="1.0" standalone="no"?>
<!DOCTYPE svg PUBLIC "-//W3C//DTD SVG 20010904//EN"
 "http://www.w3.org/TR/2001/REC-SVG-20010904/DTD/svg10.dtd">
<svg version="1.0" xmlns="http://www.w3.org/2000/svg"
 width="626.000000pt" height="626.000000pt" viewBox="0 0 626.000000 626.000000"
 preserveAspectRatio="xMidYMid meet">
<metadata>
Created by potrace 1.14, written by Peter Selinger 2001-2017
</metadata>
<g transform="translate(0.000000,626.000000) scale(0.100000,-0.100000)"
fill="#000000" stroke="none">
<path d="M3045 5768 c-44 -16 -84 -31 -90 -32 -5 -2 -23 -9 -40 -15 -16 -7
-37 -14 -45 -16 -20 -5 -499 -174 -525 -186 -27 -12 -245 -89 -268 -94 -9 -2
-23 -7 -30 -12 -6 -4 -16 -8 -22 -10 -5 -1 -37 -11 -70 -23 -176 -64 -482
-172 -495 -175 -8 -2 -64 -22 -125 -45 -139 -51 -140 -52 -140 -49 0 1 -18 -6
-40 -16 -22 -9 -62 -24 -90 -32 -27 -8 -54 -18 -60 -21 -5 -4 -14 -7 -20 -9
-10 -2 -218 -75 -245 -86 -26 -11 -184 -67 -200 -72 -15 -3 -121 -41 -400
-141 l-135 -49 -3 -1733 c-2 -1381 0 -1734 10 -1737 7 -2 24 -7 38 -9 14 -3
88 -21 165 -40 113 -28 741 -183 820 -202 11 -3 34 -8 50 -11 17 -3 37 -9 46
-14 9 -4 19 -6 22 -2 4 3 13 0 22 -7 8 -7 15 -10 15 -8 0 3 26 -1 57 -9 32 -8
85 -21 118 -29 33 -8 69 -17 80 -20 18 -5 42 -11 121 -29 39 -9 349 -85 374
-92 14 -4 32 -8 40 -9 8 -1 71 -17 140 -34 69 -18 132 -33 140 -35 8 -2 44
-11 80 -20 36 -9 72 -18 80 -20 17 -4 147 -35 170 -41 52 -13 108 -26 123 -29
10 -2 27 -7 37 -10 10 -3 27 -7 37 -9 10 -2 38 -10 63 -17 25 -6 52 -13 60
-14 8 -1 56 -13 105 -25 95 -25 144 -31 160 -21 6 3 15 6 20 7 6 1 69 16 140
34 72 17 138 33 148 35 10 2 27 7 37 10 10 3 27 8 37 10 10 2 56 14 103 25 47
12 96 24 109 26 14 3 28 7 33 10 5 3 18 7 31 10 27 5 44 9 127 29 82 21 99 25
129 31 14 3 28 7 33 10 5 3 18 7 31 10 12 2 31 6 42 8 32 7 546 135 588 146
108 29 193 50 222 56 60 11 81 17 93 26 6 6 12 8 12 5 0 -4 18 -1 90 17 255
65 710 179 725 182 11 3 29 7 40 10 11 2 81 19 155 37 l135 34 3 1736 c2 1680
1 1737 -16 1737 -10 0 -22 3 -26 8 -4 4 -11 7 -14 8 -4 0 -16 4 -27 8 -11 4
-31 12 -45 16 -95 33 -524 185 -565 200 -27 10 -135 48 -240 85 -104 37 -226
80 -271 96 -44 16 -83 29 -86 29 -3 0 -23 8 -44 17 -22 9 -44 18 -51 19 -24 4
-88 27 -98 34 -5 4 -23 11 -40 15 -43 12 -38 10 -175 60 -69 25 -134 48 -145
51 -11 3 -29 9 -40 14 -11 5 -60 23 -110 40 -49 17 -112 39 -140 49 -27 10
-63 23 -80 29 -176 61 -213 75 -230 82 -11 5 -78 29 -150 53 -71 25 -195 68
-275 97 -80 28 -154 54 -165 57 -11 3 -34 11 -52 19 -38 17 -32 18 -128 -18z"/>
</g>
</svg>
