<?xml version="1.0" standalone="no"?>
<!DOCTYPE svg PUBLIC "-//W3C//DTD SVG 20010904//EN"
 "http://www.w3.org/TR/2001/REC-SVG-20010904/DTD/svg10.dtd">
<svg version="1.0" xmlns="http://www.w3.org/2000/svg"
 width="688.000000pt" height="688.000000pt" viewBox="0 0 688.000000 688.000000"
 preserveAspectRatio="xMidYMid meet">
<metadata>
Created by potrace 1.14, written by Peter Selinger 2001-2017
</metadata>
<g transform="translate(0.000000,688.000000) scale(0.100000,-0.100000)"
fill="#000000" stroke="none">
<path d="M3305 6489 c-66 -27 -129 -53 -140 -58 -11 -5 -83 -35 -160 -67 -77
-31 -194 -79 -260 -106 -66 -28 -167 -70 -225 -93 -58 -24 -208 -86 -335 -138
-126 -52 -527 -217 -890 -367 -363 -150 -671 -277 -685 -283 -14 -6 -27 -11
-30 -12 -3 -1 -16 -6 -30 -12 -14 -6 -88 -37 -165 -68 -382 -157 -375 -153
-376 -165 -6 -95 1 -3804 7 -3809 8 -7 128 -44 179 -56 11 -2 76 -20 145 -40
69 -20 148 -42 175 -50 28 -8 210 -59 405 -115 195 -56 387 -110 425 -120 39
-11 117 -33 175 -50 58 -17 112 -32 120 -34 8 -2 80 -23 160 -46 80 -23 168
-48 195 -55 28 -7 210 -59 405 -114 195 -56 436 -124 535 -152 99 -28 194 -55
210 -60 17 -5 87 -25 157 -45 l127 -35 338 96 c186 53 345 98 353 100 8 2 56
16 105 30 50 15 97 29 105 31 14 3 115 32 350 100 125 36 193 55 210 59 8 2
62 18 120 35 58 18 113 33 123 35 10 2 32 9 50 15 18 5 208 60 422 120 215 61
419 119 455 130 109 32 350 101 430 121 41 11 93 26 115 34 22 8 92 28 156 45
l116 32 -1 1911 -1 1911 -340 137 c-187 76 -356 144 -375 152 -19 8 -165 68
-325 132 -159 64 -303 123 -320 130 -16 7 -75 31 -130 53 -55 22 -208 84 -340
137 -491 198 -761 307 -790 320 -16 7 -172 70 -345 139 -173 70 -324 131 -335
136 -31 14 -144 60 -147 59 -2 0 -57 -22 -123 -50z"/>
</g>
</svg>
